%TF.GenerationSoftware,KiCad,Pcbnew,7.0.1*%
%TF.CreationDate,2023-09-22T18:52:24+02:00*%
%TF.ProjectId,Scheda Attivatore,53636865-6461-4204-9174-74697661746f,rev?*%
%TF.SameCoordinates,Original*%
%TF.FileFunction,Legend,Bot*%
%TF.FilePolarity,Positive*%
%FSLAX46Y46*%
G04 Gerber Fmt 4.6, Leading zero omitted, Abs format (unit mm)*
G04 Created by KiCad (PCBNEW 7.0.1) date 2023-09-22 18:52:24*
%MOMM*%
%LPD*%
G01*
G04 APERTURE LIST*
%ADD10C,0.150000*%
%ADD11C,0.120000*%
G04 APERTURE END LIST*
D10*
%TO.C,T1*%
X191388904Y-112111619D02*
X190817476Y-112111619D01*
X191103190Y-113111619D02*
X191103190Y-112111619D01*
X189960333Y-113111619D02*
X190531761Y-113111619D01*
X190246047Y-113111619D02*
X190246047Y-112111619D01*
X190246047Y-112111619D02*
X190341285Y-112254476D01*
X190341285Y-112254476D02*
X190436523Y-112349714D01*
X190436523Y-112349714D02*
X190531761Y-112397333D01*
%TO.C,R7*%
X199217619Y-114768333D02*
X198741428Y-114435000D01*
X199217619Y-114196905D02*
X198217619Y-114196905D01*
X198217619Y-114196905D02*
X198217619Y-114577857D01*
X198217619Y-114577857D02*
X198265238Y-114673095D01*
X198265238Y-114673095D02*
X198312857Y-114720714D01*
X198312857Y-114720714D02*
X198408095Y-114768333D01*
X198408095Y-114768333D02*
X198550952Y-114768333D01*
X198550952Y-114768333D02*
X198646190Y-114720714D01*
X198646190Y-114720714D02*
X198693809Y-114673095D01*
X198693809Y-114673095D02*
X198741428Y-114577857D01*
X198741428Y-114577857D02*
X198741428Y-114196905D01*
X198217619Y-115101667D02*
X198217619Y-115768333D01*
X198217619Y-115768333D02*
X199217619Y-115339762D01*
%TO.C,U10*%
X125751380Y-118763894D02*
X124941857Y-118763894D01*
X124941857Y-118763894D02*
X124846619Y-118716275D01*
X124846619Y-118716275D02*
X124799000Y-118668656D01*
X124799000Y-118668656D02*
X124751380Y-118573418D01*
X124751380Y-118573418D02*
X124751380Y-118382942D01*
X124751380Y-118382942D02*
X124799000Y-118287704D01*
X124799000Y-118287704D02*
X124846619Y-118240085D01*
X124846619Y-118240085D02*
X124941857Y-118192466D01*
X124941857Y-118192466D02*
X125751380Y-118192466D01*
X124751380Y-117192466D02*
X124751380Y-117763894D01*
X124751380Y-117478180D02*
X125751380Y-117478180D01*
X125751380Y-117478180D02*
X125608523Y-117573418D01*
X125608523Y-117573418D02*
X125513285Y-117668656D01*
X125513285Y-117668656D02*
X125465666Y-117763894D01*
X125751380Y-116573418D02*
X125751380Y-116478180D01*
X125751380Y-116478180D02*
X125703761Y-116382942D01*
X125703761Y-116382942D02*
X125656142Y-116335323D01*
X125656142Y-116335323D02*
X125560904Y-116287704D01*
X125560904Y-116287704D02*
X125370428Y-116240085D01*
X125370428Y-116240085D02*
X125132333Y-116240085D01*
X125132333Y-116240085D02*
X124941857Y-116287704D01*
X124941857Y-116287704D02*
X124846619Y-116335323D01*
X124846619Y-116335323D02*
X124799000Y-116382942D01*
X124799000Y-116382942D02*
X124751380Y-116478180D01*
X124751380Y-116478180D02*
X124751380Y-116573418D01*
X124751380Y-116573418D02*
X124799000Y-116668656D01*
X124799000Y-116668656D02*
X124846619Y-116716275D01*
X124846619Y-116716275D02*
X124941857Y-116763894D01*
X124941857Y-116763894D02*
X125132333Y-116811513D01*
X125132333Y-116811513D02*
X125370428Y-116811513D01*
X125370428Y-116811513D02*
X125560904Y-116763894D01*
X125560904Y-116763894D02*
X125656142Y-116716275D01*
X125656142Y-116716275D02*
X125703761Y-116668656D01*
X125703761Y-116668656D02*
X125751380Y-116573418D01*
%TO.C,C2*%
X153682266Y-80937380D02*
X153729885Y-80985000D01*
X153729885Y-80985000D02*
X153872742Y-81032619D01*
X153872742Y-81032619D02*
X153967980Y-81032619D01*
X153967980Y-81032619D02*
X154110837Y-80985000D01*
X154110837Y-80985000D02*
X154206075Y-80889761D01*
X154206075Y-80889761D02*
X154253694Y-80794523D01*
X154253694Y-80794523D02*
X154301313Y-80604047D01*
X154301313Y-80604047D02*
X154301313Y-80461190D01*
X154301313Y-80461190D02*
X154253694Y-80270714D01*
X154253694Y-80270714D02*
X154206075Y-80175476D01*
X154206075Y-80175476D02*
X154110837Y-80080238D01*
X154110837Y-80080238D02*
X153967980Y-80032619D01*
X153967980Y-80032619D02*
X153872742Y-80032619D01*
X153872742Y-80032619D02*
X153729885Y-80080238D01*
X153729885Y-80080238D02*
X153682266Y-80127857D01*
X153301313Y-80127857D02*
X153253694Y-80080238D01*
X153253694Y-80080238D02*
X153158456Y-80032619D01*
X153158456Y-80032619D02*
X152920361Y-80032619D01*
X152920361Y-80032619D02*
X152825123Y-80080238D01*
X152825123Y-80080238D02*
X152777504Y-80127857D01*
X152777504Y-80127857D02*
X152729885Y-80223095D01*
X152729885Y-80223095D02*
X152729885Y-80318333D01*
X152729885Y-80318333D02*
X152777504Y-80461190D01*
X152777504Y-80461190D02*
X153348932Y-81032619D01*
X153348932Y-81032619D02*
X152729885Y-81032619D01*
%TO.C,U2*%
X144361904Y-81342619D02*
X144361904Y-82152142D01*
X144361904Y-82152142D02*
X144314285Y-82247380D01*
X144314285Y-82247380D02*
X144266666Y-82295000D01*
X144266666Y-82295000D02*
X144171428Y-82342619D01*
X144171428Y-82342619D02*
X143980952Y-82342619D01*
X143980952Y-82342619D02*
X143885714Y-82295000D01*
X143885714Y-82295000D02*
X143838095Y-82247380D01*
X143838095Y-82247380D02*
X143790476Y-82152142D01*
X143790476Y-82152142D02*
X143790476Y-81342619D01*
X143361904Y-81437857D02*
X143314285Y-81390238D01*
X143314285Y-81390238D02*
X143219047Y-81342619D01*
X143219047Y-81342619D02*
X142980952Y-81342619D01*
X142980952Y-81342619D02*
X142885714Y-81390238D01*
X142885714Y-81390238D02*
X142838095Y-81437857D01*
X142838095Y-81437857D02*
X142790476Y-81533095D01*
X142790476Y-81533095D02*
X142790476Y-81628333D01*
X142790476Y-81628333D02*
X142838095Y-81771190D01*
X142838095Y-81771190D02*
X143409523Y-82342619D01*
X143409523Y-82342619D02*
X142790476Y-82342619D01*
%TO.C,C7*%
X119166666Y-71767380D02*
X119214285Y-71815000D01*
X119214285Y-71815000D02*
X119357142Y-71862619D01*
X119357142Y-71862619D02*
X119452380Y-71862619D01*
X119452380Y-71862619D02*
X119595237Y-71815000D01*
X119595237Y-71815000D02*
X119690475Y-71719761D01*
X119690475Y-71719761D02*
X119738094Y-71624523D01*
X119738094Y-71624523D02*
X119785713Y-71434047D01*
X119785713Y-71434047D02*
X119785713Y-71291190D01*
X119785713Y-71291190D02*
X119738094Y-71100714D01*
X119738094Y-71100714D02*
X119690475Y-71005476D01*
X119690475Y-71005476D02*
X119595237Y-70910238D01*
X119595237Y-70910238D02*
X119452380Y-70862619D01*
X119452380Y-70862619D02*
X119357142Y-70862619D01*
X119357142Y-70862619D02*
X119214285Y-70910238D01*
X119214285Y-70910238D02*
X119166666Y-70957857D01*
X118833332Y-70862619D02*
X118166666Y-70862619D01*
X118166666Y-70862619D02*
X118595237Y-71862619D01*
%TO.C,C8*%
X111816666Y-71767380D02*
X111864285Y-71815000D01*
X111864285Y-71815000D02*
X112007142Y-71862619D01*
X112007142Y-71862619D02*
X112102380Y-71862619D01*
X112102380Y-71862619D02*
X112245237Y-71815000D01*
X112245237Y-71815000D02*
X112340475Y-71719761D01*
X112340475Y-71719761D02*
X112388094Y-71624523D01*
X112388094Y-71624523D02*
X112435713Y-71434047D01*
X112435713Y-71434047D02*
X112435713Y-71291190D01*
X112435713Y-71291190D02*
X112388094Y-71100714D01*
X112388094Y-71100714D02*
X112340475Y-71005476D01*
X112340475Y-71005476D02*
X112245237Y-70910238D01*
X112245237Y-70910238D02*
X112102380Y-70862619D01*
X112102380Y-70862619D02*
X112007142Y-70862619D01*
X112007142Y-70862619D02*
X111864285Y-70910238D01*
X111864285Y-70910238D02*
X111816666Y-70957857D01*
X111245237Y-71291190D02*
X111340475Y-71243571D01*
X111340475Y-71243571D02*
X111388094Y-71195952D01*
X111388094Y-71195952D02*
X111435713Y-71100714D01*
X111435713Y-71100714D02*
X111435713Y-71053095D01*
X111435713Y-71053095D02*
X111388094Y-70957857D01*
X111388094Y-70957857D02*
X111340475Y-70910238D01*
X111340475Y-70910238D02*
X111245237Y-70862619D01*
X111245237Y-70862619D02*
X111054761Y-70862619D01*
X111054761Y-70862619D02*
X110959523Y-70910238D01*
X110959523Y-70910238D02*
X110911904Y-70957857D01*
X110911904Y-70957857D02*
X110864285Y-71053095D01*
X110864285Y-71053095D02*
X110864285Y-71100714D01*
X110864285Y-71100714D02*
X110911904Y-71195952D01*
X110911904Y-71195952D02*
X110959523Y-71243571D01*
X110959523Y-71243571D02*
X111054761Y-71291190D01*
X111054761Y-71291190D02*
X111245237Y-71291190D01*
X111245237Y-71291190D02*
X111340475Y-71338809D01*
X111340475Y-71338809D02*
X111388094Y-71386428D01*
X111388094Y-71386428D02*
X111435713Y-71481666D01*
X111435713Y-71481666D02*
X111435713Y-71672142D01*
X111435713Y-71672142D02*
X111388094Y-71767380D01*
X111388094Y-71767380D02*
X111340475Y-71815000D01*
X111340475Y-71815000D02*
X111245237Y-71862619D01*
X111245237Y-71862619D02*
X111054761Y-71862619D01*
X111054761Y-71862619D02*
X110959523Y-71815000D01*
X110959523Y-71815000D02*
X110911904Y-71767380D01*
X110911904Y-71767380D02*
X110864285Y-71672142D01*
X110864285Y-71672142D02*
X110864285Y-71481666D01*
X110864285Y-71481666D02*
X110911904Y-71386428D01*
X110911904Y-71386428D02*
X110959523Y-71338809D01*
X110959523Y-71338809D02*
X111054761Y-71291190D01*
%TO.C,C1*%
X163224781Y-92924333D02*
X163272401Y-92876714D01*
X163272401Y-92876714D02*
X163320020Y-92733857D01*
X163320020Y-92733857D02*
X163320020Y-92638619D01*
X163320020Y-92638619D02*
X163272401Y-92495762D01*
X163272401Y-92495762D02*
X163177162Y-92400524D01*
X163177162Y-92400524D02*
X163081924Y-92352905D01*
X163081924Y-92352905D02*
X162891448Y-92305286D01*
X162891448Y-92305286D02*
X162748591Y-92305286D01*
X162748591Y-92305286D02*
X162558115Y-92352905D01*
X162558115Y-92352905D02*
X162462877Y-92400524D01*
X162462877Y-92400524D02*
X162367639Y-92495762D01*
X162367639Y-92495762D02*
X162320020Y-92638619D01*
X162320020Y-92638619D02*
X162320020Y-92733857D01*
X162320020Y-92733857D02*
X162367639Y-92876714D01*
X162367639Y-92876714D02*
X162415258Y-92924333D01*
X163320020Y-93876714D02*
X163320020Y-93305286D01*
X163320020Y-93591000D02*
X162320020Y-93591000D01*
X162320020Y-93591000D02*
X162462877Y-93495762D01*
X162462877Y-93495762D02*
X162558115Y-93400524D01*
X162558115Y-93400524D02*
X162605734Y-93305286D01*
%TO.C,BZ1*%
X196618809Y-103019047D02*
X196666428Y-103161904D01*
X196666428Y-103161904D02*
X196714047Y-103209523D01*
X196714047Y-103209523D02*
X196809285Y-103257142D01*
X196809285Y-103257142D02*
X196952142Y-103257142D01*
X196952142Y-103257142D02*
X197047380Y-103209523D01*
X197047380Y-103209523D02*
X197095000Y-103161904D01*
X197095000Y-103161904D02*
X197142619Y-103066666D01*
X197142619Y-103066666D02*
X197142619Y-102685714D01*
X197142619Y-102685714D02*
X196142619Y-102685714D01*
X196142619Y-102685714D02*
X196142619Y-103019047D01*
X196142619Y-103019047D02*
X196190238Y-103114285D01*
X196190238Y-103114285D02*
X196237857Y-103161904D01*
X196237857Y-103161904D02*
X196333095Y-103209523D01*
X196333095Y-103209523D02*
X196428333Y-103209523D01*
X196428333Y-103209523D02*
X196523571Y-103161904D01*
X196523571Y-103161904D02*
X196571190Y-103114285D01*
X196571190Y-103114285D02*
X196618809Y-103019047D01*
X196618809Y-103019047D02*
X196618809Y-102685714D01*
X196142619Y-103590476D02*
X196142619Y-104257142D01*
X196142619Y-104257142D02*
X197142619Y-103590476D01*
X197142619Y-103590476D02*
X197142619Y-104257142D01*
X197142619Y-105161904D02*
X197142619Y-104590476D01*
X197142619Y-104876190D02*
X196142619Y-104876190D01*
X196142619Y-104876190D02*
X196285476Y-104780952D01*
X196285476Y-104780952D02*
X196380714Y-104685714D01*
X196380714Y-104685714D02*
X196428333Y-104590476D01*
X188146666Y-99334048D02*
X188146666Y-100095953D01*
X188527619Y-99715000D02*
X187765714Y-99715000D01*
%TO.C,R3*%
X107566619Y-80986333D02*
X107090428Y-80653000D01*
X107566619Y-80414905D02*
X106566619Y-80414905D01*
X106566619Y-80414905D02*
X106566619Y-80795857D01*
X106566619Y-80795857D02*
X106614238Y-80891095D01*
X106614238Y-80891095D02*
X106661857Y-80938714D01*
X106661857Y-80938714D02*
X106757095Y-80986333D01*
X106757095Y-80986333D02*
X106899952Y-80986333D01*
X106899952Y-80986333D02*
X106995190Y-80938714D01*
X106995190Y-80938714D02*
X107042809Y-80891095D01*
X107042809Y-80891095D02*
X107090428Y-80795857D01*
X107090428Y-80795857D02*
X107090428Y-80414905D01*
X106566619Y-81319667D02*
X106566619Y-81938714D01*
X106566619Y-81938714D02*
X106947571Y-81605381D01*
X106947571Y-81605381D02*
X106947571Y-81748238D01*
X106947571Y-81748238D02*
X106995190Y-81843476D01*
X106995190Y-81843476D02*
X107042809Y-81891095D01*
X107042809Y-81891095D02*
X107138047Y-81938714D01*
X107138047Y-81938714D02*
X107376142Y-81938714D01*
X107376142Y-81938714D02*
X107471380Y-81891095D01*
X107471380Y-81891095D02*
X107519000Y-81843476D01*
X107519000Y-81843476D02*
X107566619Y-81748238D01*
X107566619Y-81748238D02*
X107566619Y-81462524D01*
X107566619Y-81462524D02*
X107519000Y-81367286D01*
X107519000Y-81367286D02*
X107471380Y-81319667D01*
%TO.C,C3*%
X145416666Y-86467380D02*
X145464285Y-86515000D01*
X145464285Y-86515000D02*
X145607142Y-86562619D01*
X145607142Y-86562619D02*
X145702380Y-86562619D01*
X145702380Y-86562619D02*
X145845237Y-86515000D01*
X145845237Y-86515000D02*
X145940475Y-86419761D01*
X145940475Y-86419761D02*
X145988094Y-86324523D01*
X145988094Y-86324523D02*
X146035713Y-86134047D01*
X146035713Y-86134047D02*
X146035713Y-85991190D01*
X146035713Y-85991190D02*
X145988094Y-85800714D01*
X145988094Y-85800714D02*
X145940475Y-85705476D01*
X145940475Y-85705476D02*
X145845237Y-85610238D01*
X145845237Y-85610238D02*
X145702380Y-85562619D01*
X145702380Y-85562619D02*
X145607142Y-85562619D01*
X145607142Y-85562619D02*
X145464285Y-85610238D01*
X145464285Y-85610238D02*
X145416666Y-85657857D01*
X145083332Y-85562619D02*
X144464285Y-85562619D01*
X144464285Y-85562619D02*
X144797618Y-85943571D01*
X144797618Y-85943571D02*
X144654761Y-85943571D01*
X144654761Y-85943571D02*
X144559523Y-85991190D01*
X144559523Y-85991190D02*
X144511904Y-86038809D01*
X144511904Y-86038809D02*
X144464285Y-86134047D01*
X144464285Y-86134047D02*
X144464285Y-86372142D01*
X144464285Y-86372142D02*
X144511904Y-86467380D01*
X144511904Y-86467380D02*
X144559523Y-86515000D01*
X144559523Y-86515000D02*
X144654761Y-86562619D01*
X144654761Y-86562619D02*
X144940475Y-86562619D01*
X144940475Y-86562619D02*
X145035713Y-86515000D01*
X145035713Y-86515000D02*
X145083332Y-86467380D01*
%TO.C,T2*%
X177011904Y-120662619D02*
X176440476Y-120662619D01*
X176726190Y-121662619D02*
X176726190Y-120662619D01*
X176154761Y-120757857D02*
X176107142Y-120710238D01*
X176107142Y-120710238D02*
X176011904Y-120662619D01*
X176011904Y-120662619D02*
X175773809Y-120662619D01*
X175773809Y-120662619D02*
X175678571Y-120710238D01*
X175678571Y-120710238D02*
X175630952Y-120757857D01*
X175630952Y-120757857D02*
X175583333Y-120853095D01*
X175583333Y-120853095D02*
X175583333Y-120948333D01*
X175583333Y-120948333D02*
X175630952Y-121091190D01*
X175630952Y-121091190D02*
X176202380Y-121662619D01*
X176202380Y-121662619D02*
X175583333Y-121662619D01*
%TO.C,R8*%
X199429666Y-123144619D02*
X199762999Y-122668428D01*
X200001094Y-123144619D02*
X200001094Y-122144619D01*
X200001094Y-122144619D02*
X199620142Y-122144619D01*
X199620142Y-122144619D02*
X199524904Y-122192238D01*
X199524904Y-122192238D02*
X199477285Y-122239857D01*
X199477285Y-122239857D02*
X199429666Y-122335095D01*
X199429666Y-122335095D02*
X199429666Y-122477952D01*
X199429666Y-122477952D02*
X199477285Y-122573190D01*
X199477285Y-122573190D02*
X199524904Y-122620809D01*
X199524904Y-122620809D02*
X199620142Y-122668428D01*
X199620142Y-122668428D02*
X200001094Y-122668428D01*
X198858237Y-122573190D02*
X198953475Y-122525571D01*
X198953475Y-122525571D02*
X199001094Y-122477952D01*
X199001094Y-122477952D02*
X199048713Y-122382714D01*
X199048713Y-122382714D02*
X199048713Y-122335095D01*
X199048713Y-122335095D02*
X199001094Y-122239857D01*
X199001094Y-122239857D02*
X198953475Y-122192238D01*
X198953475Y-122192238D02*
X198858237Y-122144619D01*
X198858237Y-122144619D02*
X198667761Y-122144619D01*
X198667761Y-122144619D02*
X198572523Y-122192238D01*
X198572523Y-122192238D02*
X198524904Y-122239857D01*
X198524904Y-122239857D02*
X198477285Y-122335095D01*
X198477285Y-122335095D02*
X198477285Y-122382714D01*
X198477285Y-122382714D02*
X198524904Y-122477952D01*
X198524904Y-122477952D02*
X198572523Y-122525571D01*
X198572523Y-122525571D02*
X198667761Y-122573190D01*
X198667761Y-122573190D02*
X198858237Y-122573190D01*
X198858237Y-122573190D02*
X198953475Y-122620809D01*
X198953475Y-122620809D02*
X199001094Y-122668428D01*
X199001094Y-122668428D02*
X199048713Y-122763666D01*
X199048713Y-122763666D02*
X199048713Y-122954142D01*
X199048713Y-122954142D02*
X199001094Y-123049380D01*
X199001094Y-123049380D02*
X198953475Y-123097000D01*
X198953475Y-123097000D02*
X198858237Y-123144619D01*
X198858237Y-123144619D02*
X198667761Y-123144619D01*
X198667761Y-123144619D02*
X198572523Y-123097000D01*
X198572523Y-123097000D02*
X198524904Y-123049380D01*
X198524904Y-123049380D02*
X198477285Y-122954142D01*
X198477285Y-122954142D02*
X198477285Y-122763666D01*
X198477285Y-122763666D02*
X198524904Y-122668428D01*
X198524904Y-122668428D02*
X198572523Y-122620809D01*
X198572523Y-122620809D02*
X198667761Y-122573190D01*
D11*
%TO.C,T1*%
X192510000Y-110545000D02*
X196110000Y-110545000D01*
X192471522Y-110556522D02*
G75*
G03*
X194310000Y-114995000I1838478J-1838478D01*
G01*
X194310000Y-114995000D02*
G75*
G03*
X196148478Y-110556522I0J2600000D01*
G01*
%TO.C,R7*%
X200125000Y-111665000D02*
X200125000Y-118205000D01*
X199795000Y-111665000D02*
X200125000Y-111665000D01*
X197715000Y-111665000D02*
X197385000Y-111665000D01*
X197385000Y-111665000D02*
X197385000Y-118205000D01*
X200125000Y-118205000D02*
X199795000Y-118205000D01*
X197385000Y-118205000D02*
X197715000Y-118205000D01*
%TO.C,U10*%
X112854000Y-129185800D02*
X141654000Y-129185800D01*
X112854000Y-129185800D02*
X112854000Y-75385800D01*
X141654000Y-129185800D02*
X141654000Y-75385800D01*
X141654000Y-75385800D02*
X112854000Y-75385800D01*
%TO.C,C2*%
X155785401Y-82625000D02*
X155385401Y-82625000D01*
X155585401Y-82425000D02*
X155585401Y-82825000D01*
X153515600Y-81740000D02*
X153515600Y-85900000D01*
X153475600Y-81740000D02*
X153475600Y-85900000D01*
X153435600Y-81741000D02*
X153435600Y-85899000D01*
X153395600Y-81743000D02*
X153395600Y-85897000D01*
X153355600Y-81746000D02*
X153355600Y-85894000D01*
X153315600Y-84660000D02*
X153315600Y-85891000D01*
X153315600Y-81749000D02*
X153315600Y-82980000D01*
X153275600Y-84660000D02*
X153275600Y-85887000D01*
X153275600Y-81753000D02*
X153275600Y-82980000D01*
X153235600Y-84660000D02*
X153235600Y-85882000D01*
X153235600Y-81758000D02*
X153235600Y-82980000D01*
X153195600Y-84660000D02*
X153195600Y-85876000D01*
X153195600Y-81764000D02*
X153195600Y-82980000D01*
X153155600Y-84660000D02*
X153155600Y-85870000D01*
X153155600Y-81770000D02*
X153155600Y-82980000D01*
X153115600Y-84660000D02*
X153115600Y-85862000D01*
X153115600Y-81778000D02*
X153115600Y-82980000D01*
X153075600Y-84660000D02*
X153075600Y-85854000D01*
X153075600Y-81786000D02*
X153075600Y-82980000D01*
X153035600Y-84660000D02*
X153035600Y-85845000D01*
X153035600Y-81795000D02*
X153035600Y-82980000D01*
X152995600Y-84660000D02*
X152995600Y-85836000D01*
X152995600Y-81804000D02*
X152995600Y-82980000D01*
X152955600Y-84660000D02*
X152955600Y-85825000D01*
X152955600Y-81815000D02*
X152955600Y-82980000D01*
X152915600Y-84660000D02*
X152915600Y-85814000D01*
X152915600Y-81826000D02*
X152915600Y-82980000D01*
X152875600Y-84660000D02*
X152875600Y-85802000D01*
X152875600Y-81838000D02*
X152875600Y-82980000D01*
X152835600Y-84660000D02*
X152835600Y-85788000D01*
X152835600Y-81852000D02*
X152835600Y-82980000D01*
X152794600Y-84660000D02*
X152794600Y-85774000D01*
X152794600Y-81866000D02*
X152794600Y-82980000D01*
X152754600Y-84660000D02*
X152754600Y-85760000D01*
X152754600Y-81880000D02*
X152754600Y-82980000D01*
X152714600Y-84660000D02*
X152714600Y-85744000D01*
X152714600Y-81896000D02*
X152714600Y-82980000D01*
X152674600Y-84660000D02*
X152674600Y-85727000D01*
X152674600Y-81913000D02*
X152674600Y-82980000D01*
X152634600Y-84660000D02*
X152634600Y-85709000D01*
X152634600Y-81931000D02*
X152634600Y-82980000D01*
X152594600Y-84660000D02*
X152594600Y-85690000D01*
X152594600Y-81950000D02*
X152594600Y-82980000D01*
X152554600Y-84660000D02*
X152554600Y-85671000D01*
X152554600Y-81969000D02*
X152554600Y-82980000D01*
X152514600Y-84660000D02*
X152514600Y-85650000D01*
X152514600Y-81990000D02*
X152514600Y-82980000D01*
X152474600Y-84660000D02*
X152474600Y-85628000D01*
X152474600Y-82012000D02*
X152474600Y-82980000D01*
X152434600Y-84660000D02*
X152434600Y-85605000D01*
X152434600Y-82035000D02*
X152434600Y-82980000D01*
X152394600Y-84660000D02*
X152394600Y-85580000D01*
X152394600Y-82060000D02*
X152394600Y-82980000D01*
X152354600Y-84660000D02*
X152354600Y-85555000D01*
X152354600Y-82085000D02*
X152354600Y-82980000D01*
X152314600Y-84660000D02*
X152314600Y-85528000D01*
X152314600Y-82112000D02*
X152314600Y-82980000D01*
X152274600Y-84660000D02*
X152274600Y-85500000D01*
X152274600Y-82140000D02*
X152274600Y-82980000D01*
X152234600Y-84660000D02*
X152234600Y-85470000D01*
X152234600Y-82170000D02*
X152234600Y-82980000D01*
X152194600Y-84660000D02*
X152194600Y-85439000D01*
X152194600Y-82201000D02*
X152194600Y-82980000D01*
X152154600Y-84660000D02*
X152154600Y-85407000D01*
X152154600Y-82233000D02*
X152154600Y-82980000D01*
X152114600Y-84660000D02*
X152114600Y-85372000D01*
X152114600Y-82268000D02*
X152114600Y-82980000D01*
X152074600Y-84660000D02*
X152074600Y-85336000D01*
X152074600Y-82304000D02*
X152074600Y-82980000D01*
X152034600Y-84660000D02*
X152034600Y-85298000D01*
X152034600Y-82342000D02*
X152034600Y-82980000D01*
X151994600Y-84660000D02*
X151994600Y-85258000D01*
X151994600Y-82382000D02*
X151994600Y-82980000D01*
X151954600Y-84660000D02*
X151954600Y-85216000D01*
X151954600Y-82424000D02*
X151954600Y-82980000D01*
X151914600Y-84660000D02*
X151914600Y-85171000D01*
X151914600Y-82469000D02*
X151914600Y-82980000D01*
X151874600Y-84660000D02*
X151874600Y-85124000D01*
X151874600Y-82516000D02*
X151874600Y-82980000D01*
X151834600Y-84660000D02*
X151834600Y-85074000D01*
X151834600Y-82566000D02*
X151834600Y-82980000D01*
X151794600Y-84660000D02*
X151794600Y-85020000D01*
X151794600Y-82620000D02*
X151794600Y-82980000D01*
X151754600Y-84660000D02*
X151754600Y-84962000D01*
X151754600Y-82678000D02*
X151754600Y-82980000D01*
X151714600Y-84660000D02*
X151714600Y-84900000D01*
X151714600Y-82740000D02*
X151714600Y-82980000D01*
X151674600Y-82807000D02*
X151674600Y-84833000D01*
X151634600Y-82880000D02*
X151634600Y-84760000D01*
X151594600Y-82961000D02*
X151594600Y-84679000D01*
X151554600Y-83052000D02*
X151554600Y-84588000D01*
X151514600Y-83156000D02*
X151514600Y-84484000D01*
X151474600Y-83283000D02*
X151474600Y-84357000D01*
X151434600Y-83450000D02*
X151434600Y-84190000D01*
X155635600Y-83820000D02*
G75*
G03*
X155635600Y-83820000I-2120000J0D01*
G01*
%TO.C,U2*%
X142270000Y-65520000D02*
X144930000Y-65520000D01*
X142270000Y-78280000D02*
X142270000Y-65520000D01*
X142270000Y-78280000D02*
X144930000Y-78280000D01*
X142270000Y-79550000D02*
X142270000Y-80880000D01*
X142270000Y-80880000D02*
X143600000Y-80880000D01*
X144930000Y-78280000D02*
X144930000Y-65520000D01*
%TO.C,C7*%
X121470000Y-75270000D02*
X116530000Y-75270000D01*
X121470000Y-74955000D02*
X121470000Y-75270000D01*
X121470000Y-72530000D02*
X121470000Y-72845000D01*
X121470000Y-72530000D02*
X116530000Y-72530000D01*
X116530000Y-74955000D02*
X116530000Y-75270000D01*
X116530000Y-72530000D02*
X116530000Y-72845000D01*
%TO.C,C8*%
X114120000Y-75270000D02*
X109180000Y-75270000D01*
X114120000Y-74955000D02*
X114120000Y-75270000D01*
X114120000Y-72530000D02*
X114120000Y-72845000D01*
X114120000Y-72530000D02*
X109180000Y-72530000D01*
X109180000Y-74955000D02*
X109180000Y-75270000D01*
X109180000Y-72530000D02*
X109180000Y-72845000D01*
%TO.C,C1*%
X157523600Y-94159000D02*
X157923600Y-94159000D01*
X157723600Y-94359000D02*
X157723600Y-93959000D01*
X159793401Y-95044000D02*
X159793401Y-90884000D01*
X159833401Y-95044000D02*
X159833401Y-90884000D01*
X159873401Y-95043000D02*
X159873401Y-90885000D01*
X159913401Y-95041000D02*
X159913401Y-90887000D01*
X159953401Y-95038000D02*
X159953401Y-90890000D01*
X159993401Y-92124000D02*
X159993401Y-90893000D01*
X159993401Y-95035000D02*
X159993401Y-93804000D01*
X160033401Y-92124000D02*
X160033401Y-90897000D01*
X160033401Y-95031000D02*
X160033401Y-93804000D01*
X160073401Y-92124000D02*
X160073401Y-90902000D01*
X160073401Y-95026000D02*
X160073401Y-93804000D01*
X160113401Y-92124000D02*
X160113401Y-90908000D01*
X160113401Y-95020000D02*
X160113401Y-93804000D01*
X160153401Y-92124000D02*
X160153401Y-90914000D01*
X160153401Y-95014000D02*
X160153401Y-93804000D01*
X160193401Y-92124000D02*
X160193401Y-90922000D01*
X160193401Y-95006000D02*
X160193401Y-93804000D01*
X160233401Y-92124000D02*
X160233401Y-90930000D01*
X160233401Y-94998000D02*
X160233401Y-93804000D01*
X160273401Y-92124000D02*
X160273401Y-90939000D01*
X160273401Y-94989000D02*
X160273401Y-93804000D01*
X160313401Y-92124000D02*
X160313401Y-90948000D01*
X160313401Y-94980000D02*
X160313401Y-93804000D01*
X160353401Y-92124000D02*
X160353401Y-90959000D01*
X160353401Y-94969000D02*
X160353401Y-93804000D01*
X160393401Y-92124000D02*
X160393401Y-90970000D01*
X160393401Y-94958000D02*
X160393401Y-93804000D01*
X160433401Y-92124000D02*
X160433401Y-90982000D01*
X160433401Y-94946000D02*
X160433401Y-93804000D01*
X160473401Y-92124000D02*
X160473401Y-90996000D01*
X160473401Y-94932000D02*
X160473401Y-93804000D01*
X160514401Y-92124000D02*
X160514401Y-91010000D01*
X160514401Y-94918000D02*
X160514401Y-93804000D01*
X160554401Y-92124000D02*
X160554401Y-91024000D01*
X160554401Y-94904000D02*
X160554401Y-93804000D01*
X160594401Y-92124000D02*
X160594401Y-91040000D01*
X160594401Y-94888000D02*
X160594401Y-93804000D01*
X160634401Y-92124000D02*
X160634401Y-91057000D01*
X160634401Y-94871000D02*
X160634401Y-93804000D01*
X160674401Y-92124000D02*
X160674401Y-91075000D01*
X160674401Y-94853000D02*
X160674401Y-93804000D01*
X160714401Y-92124000D02*
X160714401Y-91094000D01*
X160714401Y-94834000D02*
X160714401Y-93804000D01*
X160754401Y-92124000D02*
X160754401Y-91113000D01*
X160754401Y-94815000D02*
X160754401Y-93804000D01*
X160794401Y-92124000D02*
X160794401Y-91134000D01*
X160794401Y-94794000D02*
X160794401Y-93804000D01*
X160834401Y-92124000D02*
X160834401Y-91156000D01*
X160834401Y-94772000D02*
X160834401Y-93804000D01*
X160874401Y-92124000D02*
X160874401Y-91179000D01*
X160874401Y-94749000D02*
X160874401Y-93804000D01*
X160914401Y-92124000D02*
X160914401Y-91204000D01*
X160914401Y-94724000D02*
X160914401Y-93804000D01*
X160954401Y-92124000D02*
X160954401Y-91229000D01*
X160954401Y-94699000D02*
X160954401Y-93804000D01*
X160994401Y-92124000D02*
X160994401Y-91256000D01*
X160994401Y-94672000D02*
X160994401Y-93804000D01*
X161034401Y-92124000D02*
X161034401Y-91284000D01*
X161034401Y-94644000D02*
X161034401Y-93804000D01*
X161074401Y-92124000D02*
X161074401Y-91314000D01*
X161074401Y-94614000D02*
X161074401Y-93804000D01*
X161114401Y-92124000D02*
X161114401Y-91345000D01*
X161114401Y-94583000D02*
X161114401Y-93804000D01*
X161154401Y-92124000D02*
X161154401Y-91377000D01*
X161154401Y-94551000D02*
X161154401Y-93804000D01*
X161194401Y-92124000D02*
X161194401Y-91412000D01*
X161194401Y-94516000D02*
X161194401Y-93804000D01*
X161234401Y-92124000D02*
X161234401Y-91448000D01*
X161234401Y-94480000D02*
X161234401Y-93804000D01*
X161274401Y-92124000D02*
X161274401Y-91486000D01*
X161274401Y-94442000D02*
X161274401Y-93804000D01*
X161314401Y-92124000D02*
X161314401Y-91526000D01*
X161314401Y-94402000D02*
X161314401Y-93804000D01*
X161354401Y-92124000D02*
X161354401Y-91568000D01*
X161354401Y-94360000D02*
X161354401Y-93804000D01*
X161394401Y-92124000D02*
X161394401Y-91613000D01*
X161394401Y-94315000D02*
X161394401Y-93804000D01*
X161434401Y-92124000D02*
X161434401Y-91660000D01*
X161434401Y-94268000D02*
X161434401Y-93804000D01*
X161474401Y-92124000D02*
X161474401Y-91710000D01*
X161474401Y-94218000D02*
X161474401Y-93804000D01*
X161514401Y-92124000D02*
X161514401Y-91764000D01*
X161514401Y-94164000D02*
X161514401Y-93804000D01*
X161554401Y-92124000D02*
X161554401Y-91822000D01*
X161554401Y-94106000D02*
X161554401Y-93804000D01*
X161594401Y-92124000D02*
X161594401Y-91884000D01*
X161594401Y-94044000D02*
X161594401Y-93804000D01*
X161634401Y-93977000D02*
X161634401Y-91951000D01*
X161674401Y-93904000D02*
X161674401Y-92024000D01*
X161714401Y-93823000D02*
X161714401Y-92105000D01*
X161754401Y-93732000D02*
X161754401Y-92196000D01*
X161794401Y-93628000D02*
X161794401Y-92300000D01*
X161834401Y-93501000D02*
X161834401Y-92427000D01*
X161874401Y-93334000D02*
X161874401Y-92594000D01*
X161913401Y-92964000D02*
G75*
G03*
X161913401Y-92964000I-2120000J0D01*
G01*
%TO.C,BZ1*%
X195965000Y-103515000D02*
G75*
G03*
X195965000Y-103515000I-6100000J0D01*
G01*
%TO.C,R3*%
X110844000Y-77883000D02*
X110844000Y-84423000D01*
X110514000Y-77883000D02*
X110844000Y-77883000D01*
X108434000Y-77883000D02*
X108104000Y-77883000D01*
X108104000Y-77883000D02*
X108104000Y-84423000D01*
X110844000Y-84423000D02*
X110514000Y-84423000D01*
X108104000Y-84423000D02*
X108434000Y-84423000D01*
%TO.C,C3*%
X147798000Y-85190000D02*
X142858000Y-85190000D01*
X147798000Y-84875000D02*
X147798000Y-85190000D01*
X147798000Y-82450000D02*
X147798000Y-82765000D01*
X147798000Y-82450000D02*
X142858000Y-82450000D01*
X142858000Y-84875000D02*
X142858000Y-85190000D01*
X142858000Y-82450000D02*
X142858000Y-82765000D01*
%TO.C,T2*%
X171174000Y-120578000D02*
X174774000Y-120578000D01*
X171135522Y-120589522D02*
G75*
G03*
X172974000Y-125028000I1838478J-1838478D01*
G01*
X172974000Y-125028000D02*
G75*
G03*
X174812478Y-120589522I0J2600000D01*
G01*
%TO.C,R8*%
X202533000Y-124052000D02*
X195993000Y-124052000D01*
X202533000Y-123722000D02*
X202533000Y-124052000D01*
X202533000Y-121642000D02*
X202533000Y-121312000D01*
X202533000Y-121312000D02*
X195993000Y-121312000D01*
X195993000Y-124052000D02*
X195993000Y-123722000D01*
X195993000Y-121312000D02*
X195993000Y-121642000D01*
%TD*%
M02*
