%TF.GenerationSoftware,KiCad,Pcbnew,7.0.1*%
%TF.CreationDate,2023-09-22T18:52:24+02:00*%
%TF.ProjectId,Scheda Attivatore,53636865-6461-4204-9174-74697661746f,rev?*%
%TF.SameCoordinates,Original*%
%TF.FileFunction,Soldermask,Bot*%
%TF.FilePolarity,Negative*%
%FSLAX46Y46*%
G04 Gerber Fmt 4.6, Leading zero omitted, Abs format (unit mm)*
G04 Created by KiCad (PCBNEW 7.0.1) date 2023-09-22 18:52:24*
%MOMM*%
%LPD*%
G01*
G04 APERTURE LIST*
%ADD10R,1.700000X1.700000*%
%ADD11O,1.700000X1.700000*%
%ADD12R,1.600000X1.600000*%
%ADD13C,1.600000*%
%ADD14R,1.800000X1.800000*%
%ADD15C,1.800000*%
%ADD16O,1.600000X1.600000*%
%ADD17C,1.710000*%
%ADD18R,3.000000X3.000000*%
%ADD19C,3.000000*%
%ADD20R,1.200000X1.200000*%
%ADD21C,1.200000*%
%ADD22R,2.200000X2.200000*%
%ADD23O,2.200000X2.200000*%
%ADD24R,1.500000X1.500000*%
%ADD25C,1.500000*%
%ADD26R,1.524000X1.524000*%
%ADD27C,1.524000*%
%ADD28R,1.050000X1.500000*%
%ADD29O,1.050000X1.500000*%
%ADD30C,2.540000*%
G04 APERTURE END LIST*
D10*
%TO.C,U3_1*%
X159004000Y-72004000D03*
D11*
X159004000Y-74544000D03*
%TD*%
D12*
%TO.C,C11*%
X205400000Y-78844888D03*
D13*
X205400000Y-80844888D03*
%TD*%
D14*
%TO.C,LD3*%
X199136000Y-133096000D03*
D15*
X199136000Y-130556000D03*
%TD*%
D13*
%TO.C,MOV1*%
X125810000Y-132080000D03*
X130810000Y-132080000D03*
%TD*%
%TO.C,R17*%
X177292000Y-130810000D03*
D16*
X177292000Y-133350000D03*
%TD*%
D13*
%TO.C,R21*%
X146964400Y-68732400D03*
D16*
X154584400Y-68732400D03*
%TD*%
D10*
%TO.C,U3*%
X198755000Y-72898000D03*
D11*
X198755000Y-75438000D03*
X198755000Y-77978000D03*
X198755000Y-80518000D03*
%TD*%
D10*
%TO.C,U1*%
X177536000Y-97663000D03*
D11*
X174996000Y-97663000D03*
X172456000Y-97663000D03*
X169916000Y-97663000D03*
X167376000Y-97663000D03*
X164836000Y-97663000D03*
X162296000Y-97663000D03*
X159756000Y-97663000D03*
X157216000Y-97663000D03*
X154676000Y-97663000D03*
X152136000Y-97663000D03*
X149596000Y-97663000D03*
X147056000Y-97663000D03*
X144516000Y-97663000D03*
%TD*%
D13*
%TO.C,R25*%
X149352000Y-101473000D03*
D16*
X149352000Y-109093000D03*
%TD*%
D13*
%TO.C,R9*%
X161544000Y-122174000D03*
D16*
X169164000Y-122174000D03*
%TD*%
D12*
%TO.C,U9*%
X179578000Y-81026000D03*
D16*
X177038000Y-81026000D03*
X174498000Y-81026000D03*
X174498000Y-88646000D03*
X177038000Y-88646000D03*
X179578000Y-88646000D03*
%TD*%
D13*
%TO.C,C5*%
X139065000Y-75946000D03*
X139065000Y-70946000D03*
%TD*%
%TO.C,R19*%
X174752000Y-109220000D03*
D16*
X182372000Y-109220000D03*
%TD*%
D13*
%TO.C,R4*%
X115265200Y-65125600D03*
D16*
X122885200Y-65125600D03*
%TD*%
D13*
%TO.C,R10*%
X161544000Y-127000000D03*
D16*
X169164000Y-127000000D03*
%TD*%
D14*
%TO.C,LD2*%
X205232000Y-133096000D03*
D15*
X205232000Y-130556000D03*
%TD*%
D13*
%TO.C,R6*%
X174244000Y-113284000D03*
D16*
X181864000Y-113284000D03*
%TD*%
D13*
%TO.C,R12*%
X163195000Y-108712000D03*
D16*
X163195000Y-101092000D03*
%TD*%
D17*
%TO.C,F2*%
X109220000Y-117012400D03*
X110420000Y-111912400D03*
%TD*%
D13*
%TO.C,R24*%
X148717000Y-115062000D03*
D16*
X156337000Y-115062000D03*
%TD*%
D13*
%TO.C,R5*%
X198374000Y-93345000D03*
D16*
X195834000Y-93345000D03*
%TD*%
D13*
%TO.C,R16*%
X177292000Y-126492000D03*
D16*
X177292000Y-123952000D03*
%TD*%
D18*
%TO.C,CN3*%
X135890000Y-130810000D03*
D19*
X140970000Y-130810000D03*
X146050000Y-130810000D03*
%TD*%
D13*
%TO.C,R2*%
X139192000Y-66040000D03*
D16*
X139192000Y-68580000D03*
%TD*%
D14*
%TO.C,LD1*%
X123444000Y-68453000D03*
D15*
X123444000Y-70993000D03*
%TD*%
D17*
%TO.C,F1*%
X149225000Y-125730000D03*
X144125000Y-124530000D03*
%TD*%
D13*
%TO.C,R11*%
X171831000Y-127000000D03*
D16*
X174371000Y-127000000D03*
%TD*%
D18*
%TO.C,CN5*%
X110490000Y-130810000D03*
D19*
X115570000Y-130810000D03*
X120650000Y-130810000D03*
%TD*%
D13*
%TO.C,R15*%
X180340000Y-126521000D03*
D16*
X180340000Y-123981000D03*
%TD*%
D20*
%TO.C,C13*%
X205740000Y-97663000D03*
D21*
X205740000Y-99663000D03*
%TD*%
D13*
%TO.C,R20*%
X174752000Y-105918000D03*
D16*
X182372000Y-105918000D03*
%TD*%
D10*
%TO.C,U1_1*%
X177546000Y-118364000D03*
D11*
X175006000Y-118364000D03*
X172466000Y-118364000D03*
X169926000Y-118364000D03*
X167386000Y-118364000D03*
X164846000Y-118364000D03*
X162306000Y-118364000D03*
X159766000Y-118364000D03*
X157226000Y-118364000D03*
X154686000Y-118364000D03*
X152146000Y-118364000D03*
X149606000Y-118364000D03*
X147066000Y-118364000D03*
X144526000Y-118364000D03*
%TD*%
D22*
%TO.C,D1*%
X182372000Y-78232000D03*
D23*
X172212000Y-78232000D03*
%TD*%
D13*
%TO.C,R26*%
X153035000Y-101473000D03*
D16*
X153035000Y-109093000D03*
%TD*%
D18*
%TO.C,CN1*%
X112014000Y-88646000D03*
D19*
X112014000Y-93726000D03*
X112014000Y-98806000D03*
X112014000Y-103886000D03*
%TD*%
D13*
%TO.C,R14*%
X168148000Y-69596000D03*
D16*
X168148000Y-77216000D03*
%TD*%
D10*
%TO.C,U4_1*%
X189723000Y-91694000D03*
D11*
X187183000Y-91694000D03*
X184643000Y-91694000D03*
X182103000Y-91694000D03*
X179563000Y-91694000D03*
X177023000Y-91694000D03*
X174483000Y-91694000D03*
X171943000Y-91694000D03*
%TD*%
D24*
%TO.C,U8*%
X118745000Y-69747500D03*
D25*
X116205000Y-69747500D03*
X113665000Y-69747500D03*
X111125000Y-69747500D03*
%TD*%
D13*
%TO.C,R22*%
X146913600Y-65989200D03*
D16*
X154533600Y-65989200D03*
%TD*%
D18*
%TO.C,CN4*%
X182680000Y-72400000D03*
D19*
X177600000Y-72400000D03*
X172520000Y-72400000D03*
%TD*%
D12*
%TO.C,SW1*%
X184404000Y-132588000D03*
D16*
X186944000Y-132588000D03*
X189484000Y-132588000D03*
X192024000Y-132588000D03*
X192024000Y-124968000D03*
X189484000Y-124968000D03*
X186944000Y-124968000D03*
X184404000Y-124968000D03*
%TD*%
D13*
%TO.C,R23*%
X168783000Y-114935000D03*
D16*
X161163000Y-114935000D03*
%TD*%
D18*
%TO.C,CN2*%
X204343000Y-117729000D03*
D19*
X204343000Y-112649000D03*
%TD*%
D13*
%TO.C,C6*%
X126873000Y-74422000D03*
X126873000Y-69422000D03*
%TD*%
%TO.C,R1*%
X129921000Y-68072000D03*
D16*
X129921000Y-75692000D03*
%TD*%
D20*
%TO.C,C12*%
X158242000Y-123487401D03*
D21*
X158242000Y-125487401D03*
%TD*%
D10*
%TO.C,U2_1*%
X164400000Y-79500000D03*
D11*
X164400000Y-76960000D03*
X164400000Y-74420000D03*
X164400000Y-71880000D03*
X164400000Y-69340000D03*
X164400000Y-66800000D03*
%TD*%
D25*
%TO.C,Y1*%
X134112000Y-72444000D03*
X134112000Y-67564000D03*
%TD*%
D13*
%TO.C,C4*%
X125095000Y-65024000D03*
X130095000Y-65024000D03*
%TD*%
D26*
%TO.C,RL1*%
X152400000Y-133096000D03*
D27*
X158750000Y-133096000D03*
X168910000Y-133096000D03*
X171450000Y-133096000D03*
%TD*%
D13*
%TO.C,R13*%
X164230000Y-82900000D03*
D16*
X171850000Y-82900000D03*
%TD*%
D13*
%TO.C,C9*%
X143002000Y-106894000D03*
X143002000Y-101894000D03*
%TD*%
%TO.C,R18*%
X180340000Y-130781000D03*
D16*
X180340000Y-133321000D03*
%TD*%
D12*
%TO.C,C10*%
X148750000Y-78994000D03*
D13*
X150750000Y-78994000D03*
%TD*%
D10*
%TO.C,U4*%
X198780400Y-99822000D03*
D11*
X198780400Y-102362000D03*
X198780400Y-104902000D03*
X198780400Y-107442000D03*
%TD*%
D28*
%TO.C,T1*%
X193040000Y-112395000D03*
D29*
X194310000Y-112395000D03*
X195580000Y-112395000D03*
%TD*%
D13*
%TO.C,R7*%
X198755000Y-111125000D03*
D16*
X198755000Y-118745000D03*
%TD*%
D30*
%TO.C,U10*%
X117094000Y-125145800D03*
X137414000Y-125145800D03*
X127254000Y-79425800D03*
X137414000Y-79425800D03*
%TD*%
D20*
%TO.C,C2*%
X154515600Y-83820000D03*
D21*
X152515600Y-83820000D03*
%TD*%
D10*
%TO.C,U2*%
X143600000Y-79550000D03*
D11*
X143600000Y-77010000D03*
X143600000Y-74470000D03*
X143600000Y-71930000D03*
X143600000Y-69390000D03*
X143600000Y-66850000D03*
%TD*%
D13*
%TO.C,C7*%
X121500000Y-73900000D03*
X116500000Y-73900000D03*
%TD*%
%TO.C,C8*%
X114150000Y-73900000D03*
X109150000Y-73900000D03*
%TD*%
D20*
%TO.C,C1*%
X158793401Y-92964000D03*
D21*
X160793401Y-92964000D03*
%TD*%
D12*
%TO.C,BZ1*%
X189865000Y-99715000D03*
D13*
X189865000Y-107315000D03*
%TD*%
%TO.C,R3*%
X109474000Y-77343000D03*
D16*
X109474000Y-84963000D03*
%TD*%
D13*
%TO.C,C3*%
X147828000Y-83820000D03*
X142828000Y-83820000D03*
%TD*%
D28*
%TO.C,T2*%
X171704000Y-122428000D03*
D29*
X172974000Y-122428000D03*
X174244000Y-122428000D03*
%TD*%
D13*
%TO.C,R8*%
X203073000Y-122682000D03*
D16*
X195453000Y-122682000D03*
%TD*%
M02*
