M48
; DRILL file {KiCad 7.0.1} date Fri Sep 22 18:52:28 2023
; FORMAT={-:-/ absolute / inch / decimal}
; #@! TF.CreationDate,2023-09-22T18:52:28+02:00
; #@! TF.GenerationSoftware,Kicad,Pcbnew,7.0.1
; #@! TF.FileFunction,Plated,1,2,PTH
FMAT,2
INCH
; #@! TA.AperFunction,Plated,PTH,ViaDrill
T1C0.0157
; #@! TA.AperFunction,Plated,PTH,ComponentDrill
T2C0.0236
; #@! TA.AperFunction,Plated,PTH,ComponentDrill
T3C0.0280
; #@! TA.AperFunction,Plated,PTH,ComponentDrill
T4C0.0295
; #@! TA.AperFunction,Plated,PTH,ComponentDrill
T5C0.0300
; #@! TA.AperFunction,Plated,PTH,ComponentDrill
T6C0.0315
; #@! TA.AperFunction,Plated,PTH,ComponentDrill
T7C0.0354
; #@! TA.AperFunction,Plated,PTH,ComponentDrill
T8C0.0394
; #@! TA.AperFunction,Plated,PTH,ComponentDrill
T9C0.0433
; #@! TA.AperFunction,Plated,PTH,ComponentDrill
T10C0.0598
; #@! TA.AperFunction,Plated,PTH,ComponentDrill
T11C0.0600
; #@! TA.AperFunction,Plated,PTH,ComponentDrill
T12C0.0606
%
G90
G05
T1
X4.4666Y-3.2
X4.7Y-2.85
X4.78Y-3.415
X4.85Y-3.0
X4.86Y-3.14
X4.895Y-4.59
X4.95Y-3.05
X5.02Y-2.56
X5.1Y-2.85
X5.18Y-3.44
X5.18Y-3.54
X5.195Y-4.52
X5.2299Y-3.4772
X5.2736Y-3.2492
X5.28Y-3.02
X5.3Y-3.95
X5.3Y-4.05
X5.3Y-4.14
X5.3Y-4.23
X5.313Y-3.25
X5.38Y-3.02
X5.4Y-2.64
X5.4Y-2.85
X5.4Y-4.02
X5.4Y-4.12
X5.45Y-4.2
X5.51Y-3.34
X5.544Y-3.2533
X5.5551Y-3.1654
X5.59Y-2.69
X5.62Y-3.68
X5.65Y-3.75
X5.65Y-4.4
X5.73Y-3.996
X5.76Y-3.46
X5.76Y-3.68
X5.8Y-2.86
X5.82Y-3.21
X5.9Y-2.85
X5.908Y-3.706
X5.91Y-4.19
X5.916Y-3.31
X5.956Y-3.458
X5.975Y-2.625
X5.982Y-3.548
X6.0Y-3.1
X6.01Y-3.0334
X6.036Y-2.836
X6.05Y-3.75
X6.08Y-2.924
X6.1Y-4.8
X6.2Y-3.1
X6.206Y-4.284
X6.21Y-3.982
X6.22Y-3.446
X6.25Y-2.6
X6.256Y-4.764
X6.265Y-4.497
X6.3Y-3.25
X6.325Y-3.42
X6.45Y-3.65
X6.455Y-4.395
X6.492Y-4.974
X6.5Y-3.55
X6.5Y-4.525
X6.5Y-4.8
X6.535Y-4.28
X6.6Y-3.73
X6.612Y-4.026
X6.65Y-4.358
X6.68Y-2.576
X6.692Y-3.508
X6.8Y-3.73
X6.886Y-4.56
X6.9Y-3.75
X6.9Y-5.1
X6.93Y-3.965
X7.01Y-4.06
X7.05Y-3.75
X7.1Y-4.8
X7.184Y-3.524
X7.24Y-4.25
X7.258Y-3.38
X7.29Y-4.31
X7.3Y-4.55
X7.39Y-3.74
X7.4Y-4.05
X7.49Y-2.606
X7.55Y-4.05
X7.585Y-3.565
X7.6Y-3.8
X7.65Y-4.6
X7.65Y-5.1
X7.72Y-5.18
X7.7615Y-3.4648
X7.778Y-5.006
X7.85Y-3.45
X7.85Y-4.52
X7.88Y-3.59
X7.9Y-3.8
X7.9Y-4.25
X7.96Y-5.08
X8.0Y-2.7
X8.0Y-4.165
X8.1Y-3.4
X8.11Y-4.015
X8.116Y-4.946
X8.138Y-4.526
X8.15Y-2.9
X8.15Y-4.2
T2
X6.0046Y-3.3
X6.0833Y-3.3
X6.23Y-4.8617
X6.23Y-4.9404
X6.2517Y-3.66
X6.3304Y-3.66
X8.1Y-3.845
X8.1Y-3.9237
T3
X4.3Y-4.6068
X4.3472Y-4.406
X5.6742Y-4.9028
X5.875Y-4.95
T4
X6.76Y-4.82
X6.81Y-4.82
X6.86Y-4.82
X7.6Y-4.425
X7.65Y-4.425
X7.7Y-4.425
T5
X6.0Y-5.24
X6.25Y-5.24
X6.65Y-5.24
X6.75Y-5.24
T6
X4.2972Y-2.9094
X4.31Y-3.045
X4.31Y-3.345
X4.375Y-2.746
X4.475Y-2.746
X4.4941Y-2.9094
X4.538Y-2.564
X4.575Y-2.746
X4.5866Y-2.9094
X4.675Y-2.746
X4.7835Y-2.9094
X4.838Y-2.564
X4.925Y-2.56
X4.9531Y-5.2
X4.995Y-2.7331
X4.995Y-2.93
X5.115Y-2.68
X5.115Y-2.98
X5.1219Y-2.56
X5.15Y-5.2
X5.28Y-2.66
X5.28Y-2.8521
X5.475Y-2.7931
X5.475Y-2.99
X5.48Y-2.6
X5.48Y-2.7
X5.6231Y-3.3
X5.63Y-4.0116
X5.63Y-4.2084
X5.784Y-2.598
X5.786Y-2.706
X5.82Y-3.3
X5.855Y-4.53
X5.8563Y-3.11
X5.88Y-3.995
X5.88Y-4.295
X5.935Y-3.11
X6.025Y-3.995
X6.025Y-4.295
X6.084Y-2.598
X6.086Y-2.706
X6.155Y-4.53
X6.345Y-4.525
X6.36Y-4.81
X6.36Y-5.0
X6.425Y-3.98
X6.425Y-4.28
X6.4657Y-3.2638
X6.62Y-2.74
X6.62Y-3.04
X6.645Y-4.525
X6.66Y-4.81
X6.66Y-5.0
X6.765Y-5.0
X6.7657Y-3.2638
X6.86Y-4.46
X6.865Y-5.0
X6.87Y-3.19
X6.87Y-3.49
X6.88Y-4.17
X6.88Y-4.3
X6.97Y-3.19
X6.97Y-3.49
X6.98Y-4.88
X6.98Y-4.98
X6.98Y-5.15
X6.98Y-5.25
X7.07Y-3.19
X7.07Y-3.49
X7.1Y-4.8811
X7.1Y-4.9811
X7.1Y-5.1489
X7.1Y-5.2489
X7.16Y-4.46
X7.18Y-4.17
X7.18Y-4.3
X7.26Y-4.92
X7.26Y-5.22
X7.36Y-4.92
X7.36Y-5.22
X7.46Y-4.92
X7.46Y-5.22
X7.56Y-4.92
X7.56Y-5.22
X7.695Y-4.83
X7.71Y-3.675
X7.81Y-3.675
X7.825Y-4.375
X7.825Y-4.675
X7.995Y-4.83
X8.0866Y-3.1041
X8.0866Y-3.1829
T7
X4.86Y-2.695
X4.86Y-2.795
X7.84Y-5.14
X7.84Y-5.24
X8.08Y-5.14
X8.08Y-5.24
T8
X5.6535Y-2.6319
X5.6535Y-2.7319
X5.6535Y-2.8319
X5.6535Y-2.9319
X5.6535Y-3.0319
X5.6535Y-3.1319
X5.6896Y-3.845
X5.69Y-4.66
X5.7896Y-3.845
X5.79Y-4.66
X5.8896Y-3.845
X5.89Y-4.66
X5.9896Y-3.845
X5.99Y-4.66
X6.0896Y-3.845
X6.09Y-4.66
X6.1896Y-3.845
X6.19Y-4.66
X6.26Y-2.8348
X6.26Y-2.9348
X6.2896Y-3.845
X6.29Y-4.66
X6.3896Y-3.845
X6.39Y-4.66
X6.4724Y-2.6299
X6.4724Y-2.7299
X6.4724Y-2.8299
X6.4724Y-2.9299
X6.4724Y-3.0299
X6.4724Y-3.1299
X6.4896Y-3.845
X6.49Y-4.66
X6.5896Y-3.845
X6.59Y-4.66
X6.6896Y-3.845
X6.69Y-4.66
X6.7694Y-3.61
X6.7896Y-3.845
X6.79Y-4.66
X6.8694Y-3.61
X6.8896Y-3.845
X6.89Y-4.66
X6.9694Y-3.61
X6.9896Y-3.845
X6.99Y-4.66
X7.0694Y-3.61
X7.1694Y-3.61
X7.2694Y-3.61
X7.3694Y-3.61
X7.4694Y-3.61
X7.475Y-3.9258
X7.475Y-4.225
X7.825Y-2.87
X7.825Y-2.97
X7.825Y-3.07
X7.825Y-3.17
X7.826Y-3.93
X7.826Y-4.03
X7.826Y-4.13
X7.826Y-4.23
T9
X6.78Y-3.08
X7.18Y-3.08
T10
X4.35Y-5.15
X4.41Y-3.49
X4.41Y-3.69
X4.41Y-3.89
X4.41Y-4.09
X4.55Y-5.15
X4.75Y-5.15
X5.35Y-5.15
X5.41Y-4.927
X5.55Y-5.15
X5.75Y-5.15
X6.7921Y-2.8504
X6.9921Y-2.8504
X7.1921Y-2.8504
X8.045Y-4.435
X8.045Y-4.635
T11
X5.01Y-3.127
T12
X4.61Y-4.927
X5.41Y-3.127
T0
M30
