%TF.GenerationSoftware,KiCad,Pcbnew,7.0.1*%
%TF.CreationDate,2023-09-22T18:52:29+02:00*%
%TF.ProjectId,Scheda Attivatore,53636865-6461-4204-9174-74697661746f,rev?*%
%TF.SameCoordinates,Original*%
%TF.FileFunction,Drillmap*%
%TF.FilePolarity,Positive*%
%FSLAX45Y45*%
G04 Gerber Fmt 4.5, Leading zero omitted, Abs format (unit mm)*
G04 Created by KiCad (PCBNEW 7.0.1) date 2023-09-22 18:52:29*
%MOMM*%
%LPD*%
G01*
G04 APERTURE LIST*
%ADD10C,0.100000*%
%ADD11C,0.200000*%
G04 APERTURE END LIST*
D10*
X15468600Y-12827000D02*
X15951200Y-12827000D01*
X18621461Y-9676549D02*
G75*
G03*
X18621461Y-9676549I-341461J0D01*
G01*
X15303500Y-12700000D02*
X15303500Y-12128500D01*
X16332200Y-13462000D02*
X20828000Y-13462000D01*
X13271500Y-12128500D02*
X13271500Y-12446000D01*
X16154400Y-13106400D02*
X16154400Y-13462000D01*
X12763500Y-13462000D02*
X12763500Y-13081000D01*
X12763500Y-12954000D02*
X12890500Y-12954000D01*
X13335000Y-12509500D02*
X13335000Y-12192000D01*
X19646900Y-6858000D02*
X19646900Y-8820150D01*
X19646900Y-8820150D02*
X18542000Y-8820150D01*
X10795000Y-10668000D02*
X10795000Y-6350000D01*
X10795000Y-10731500D02*
X10795000Y-13462000D01*
X15938500Y-12700000D02*
X15303500Y-12700000D01*
X11557000Y-11938000D02*
X11557000Y-10668000D01*
X11266500Y-6512560D02*
G75*
G03*
X11266500Y-6512560I-154000J0D01*
G01*
X13335000Y-12192000D02*
X15176500Y-12192000D01*
X12763500Y-13462000D02*
X10795000Y-13462000D01*
X16332200Y-13462000D02*
X16332200Y-13017500D01*
X15938500Y-12700000D02*
X15951200Y-12700000D01*
X12763500Y-13081000D02*
X12763500Y-12954000D01*
X11493500Y-12001500D02*
X12192000Y-12001500D01*
X12192000Y-12001500D02*
X12192000Y-12509500D01*
X15176500Y-12827000D02*
X15468600Y-12827000D01*
X20828000Y-6350000D02*
X20828000Y-13462000D01*
X20766100Y-12197080D02*
G75*
G03*
X20766100Y-12197080I-154000J0D01*
G01*
X15951200Y-12700000D02*
X15951200Y-12827000D01*
X15303500Y-12128500D02*
X13271500Y-12128500D01*
X16332200Y-13004800D02*
X16332200Y-13017500D01*
X11268100Y-12192000D02*
G75*
G03*
X11268100Y-12192000I-154000J0D01*
G01*
X13271500Y-12446000D02*
X12255500Y-12446000D01*
X20766100Y-6520000D02*
G75*
G03*
X20766100Y-6520000I-154000J0D01*
G01*
X16154400Y-13004800D02*
X16332200Y-13004800D01*
X11493500Y-10731500D02*
X11493500Y-12001500D01*
X18542000Y-6858000D02*
X19646900Y-6858000D01*
X11557000Y-10668000D02*
X10795000Y-10668000D01*
X16154400Y-13462000D02*
X12890500Y-13462000D01*
X10795000Y-10731500D02*
X11493500Y-10731500D01*
X10795000Y-6350000D02*
X20828000Y-6350000D01*
X12255500Y-12446000D02*
X12255500Y-11938000D01*
X12890500Y-12954000D02*
X12890500Y-13462000D01*
X12192000Y-12509500D02*
X13335000Y-12509500D01*
X12255500Y-11938000D02*
X11557000Y-11938000D01*
X18542000Y-8820150D02*
X18542000Y-6858000D01*
X16154400Y-13106400D02*
X16154400Y-13004800D01*
X15176500Y-12192000D02*
X15176500Y-12827000D01*
D11*
X11037619Y-13779524D02*
X11037619Y-13579524D01*
X11037619Y-13579524D02*
X11085238Y-13579524D01*
X11085238Y-13579524D02*
X11113810Y-13589048D01*
X11113810Y-13589048D02*
X11132857Y-13608095D01*
X11132857Y-13608095D02*
X11142381Y-13627143D01*
X11142381Y-13627143D02*
X11151905Y-13665238D01*
X11151905Y-13665238D02*
X11151905Y-13693809D01*
X11151905Y-13693809D02*
X11142381Y-13731905D01*
X11142381Y-13731905D02*
X11132857Y-13750952D01*
X11132857Y-13750952D02*
X11113810Y-13770000D01*
X11113810Y-13770000D02*
X11085238Y-13779524D01*
X11085238Y-13779524D02*
X11037619Y-13779524D01*
X11237619Y-13779524D02*
X11237619Y-13646190D01*
X11237619Y-13684286D02*
X11247143Y-13665238D01*
X11247143Y-13665238D02*
X11256667Y-13655714D01*
X11256667Y-13655714D02*
X11275714Y-13646190D01*
X11275714Y-13646190D02*
X11294762Y-13646190D01*
X11361428Y-13779524D02*
X11361428Y-13646190D01*
X11361428Y-13579524D02*
X11351905Y-13589048D01*
X11351905Y-13589048D02*
X11361428Y-13598571D01*
X11361428Y-13598571D02*
X11370952Y-13589048D01*
X11370952Y-13589048D02*
X11361428Y-13579524D01*
X11361428Y-13579524D02*
X11361428Y-13598571D01*
X11485238Y-13779524D02*
X11466190Y-13770000D01*
X11466190Y-13770000D02*
X11456667Y-13750952D01*
X11456667Y-13750952D02*
X11456667Y-13579524D01*
X11590000Y-13779524D02*
X11570952Y-13770000D01*
X11570952Y-13770000D02*
X11561428Y-13750952D01*
X11561428Y-13750952D02*
X11561428Y-13579524D01*
X11818571Y-13779524D02*
X11818571Y-13579524D01*
X11818571Y-13579524D02*
X11885238Y-13722381D01*
X11885238Y-13722381D02*
X11951905Y-13579524D01*
X11951905Y-13579524D02*
X11951905Y-13779524D01*
X12132857Y-13779524D02*
X12132857Y-13674762D01*
X12132857Y-13674762D02*
X12123333Y-13655714D01*
X12123333Y-13655714D02*
X12104286Y-13646190D01*
X12104286Y-13646190D02*
X12066190Y-13646190D01*
X12066190Y-13646190D02*
X12047143Y-13655714D01*
X12132857Y-13770000D02*
X12113809Y-13779524D01*
X12113809Y-13779524D02*
X12066190Y-13779524D01*
X12066190Y-13779524D02*
X12047143Y-13770000D01*
X12047143Y-13770000D02*
X12037619Y-13750952D01*
X12037619Y-13750952D02*
X12037619Y-13731905D01*
X12037619Y-13731905D02*
X12047143Y-13712857D01*
X12047143Y-13712857D02*
X12066190Y-13703333D01*
X12066190Y-13703333D02*
X12113809Y-13703333D01*
X12113809Y-13703333D02*
X12132857Y-13693809D01*
X12228095Y-13646190D02*
X12228095Y-13846190D01*
X12228095Y-13655714D02*
X12247143Y-13646190D01*
X12247143Y-13646190D02*
X12285238Y-13646190D01*
X12285238Y-13646190D02*
X12304286Y-13655714D01*
X12304286Y-13655714D02*
X12313809Y-13665238D01*
X12313809Y-13665238D02*
X12323333Y-13684286D01*
X12323333Y-13684286D02*
X12323333Y-13741428D01*
X12323333Y-13741428D02*
X12313809Y-13760476D01*
X12313809Y-13760476D02*
X12304286Y-13770000D01*
X12304286Y-13770000D02*
X12285238Y-13779524D01*
X12285238Y-13779524D02*
X12247143Y-13779524D01*
X12247143Y-13779524D02*
X12228095Y-13770000D01*
X12409048Y-13760476D02*
X12418571Y-13770000D01*
X12418571Y-13770000D02*
X12409048Y-13779524D01*
X12409048Y-13779524D02*
X12399524Y-13770000D01*
X12399524Y-13770000D02*
X12409048Y-13760476D01*
X12409048Y-13760476D02*
X12409048Y-13779524D01*
X12409048Y-13655714D02*
X12418571Y-13665238D01*
X12418571Y-13665238D02*
X12409048Y-13674762D01*
X12409048Y-13674762D02*
X12399524Y-13665238D01*
X12399524Y-13665238D02*
X12409048Y-13655714D01*
X12409048Y-13655714D02*
X12409048Y-13674762D01*
M02*
